<svg xmlns="http://www.w3.org/2000/svg" version="1.1" width="19" height="19">
<g fill="#7a7d7d" fill-rule="evenodd" clip-rule="evenodd">
	<path d="M3.8,0.8L2.7,3.1h0L1.5,0.8C1.4,0.6,1.2,0.5,1,0.5H0v0.2c0.1,0,0.2,0,0.2,0.2v3.2c0,0.1-0.1,0.2-0.2,0.2v0.2   h1.4V4.3C1.1,4.3,1,4.3,1,4.1V1.8h0.1l1.5,2.8h0.1l1.5-2.8h0.1v2.3c0,0.1-0.1,0.2-0.3,0.2v0.2h1.4V4.3c-0.1,0-0.3-0.1-0.3-0.2V0.9   c0-0.1,0.1-0.2,0.3-0.2V0.5h-1C4.1,0.5,3.9,0.6,3.8,0.8"></path>
	<path d="M11.5,3.8c0,0.5-0.4,1-1,1H7.9c-0.5,0-1-0.4-1-1V1.2c0-0.5,0.4-1,1-1h2.6c0.5,0,1,0.4,1,1V3.8z"></path>
	<path d="M11.5,10c0,0.5-0.4,1-1,1H7.9c-0.5,0-1-0.4-1-1V7.4c0-0.5,0.4-1,1-1h2.6c0.5,0,1,0.4,1,1V10z"></path>
	<path d="M17.8,3.8c0,0.5-0.4,1-1,1h-2.6c-0.5,0-1-0.4-1-1V1.2c0-0.5,0.4-1,1-1h2.6c0.5,0,1,0.4,1,1L17.8,3.8L17.8,3.8z   "></path>
	<path d="M5.1,10c0,0.5-0.4,1-1,1H1.5c-0.5,0-1-0.4-1-1V7.4c0-0.5,0.4-1,1-1h2.6c0.5,0,1,0.4,1,1V10z"></path>
	<path d="M17.8,10c0,0.5-0.4,1-1,1h-2.6c-0.5,0-1-0.4-1-1V7.4c0-0.5,0.4-1,1-1h2.6c0.5,0,1,0.4,1,1L17.8,10L17.8,10z"></path>
	<path d="M17.8,16.2c0,0.5-0.4,1-1,1h-2.6c-0.5,0-1-0.4-1-1v-2.6c0-0.5,0.4-1,1-1h2.6c0.5,0,1,0.4,1,1L17.8,16.2   L17.8,16.2z"></path>
	<path d="M11.5,16.2c0,0.5-0.4,1-1,1H7.9c-0.5,0-1-0.4-1-1v-2.6c0-0.5,0.4-1,1-1h2.6c0.5,0,1,0.4,1,1V16.2z"></path>
	<path d="M5.1,16.2c0,0.5-0.4,1-1,1H1.5c-0.5,0-1-0.4-1-1v-2.6c0-0.5,0.4-1,1-1h2.6c0.5,0,1,0.4,1,1V16.2z"></path>
</g>
</svg>