<svg width="28" height="28" viewBox="0 0 28 28" fill="none" xmlns="http://www.w3.org/2000/svg">
<path d="M13.1379 0.586317C13.4705 -0.19544 14.5295 -0.195439 14.8621 0.586318L18.2109 8.45849C18.3481 8.78092 18.6389 9.00229 18.9739 9.03934L27.154 9.94398C27.9664 10.0338 28.2936 11.0891 27.6868 11.6621L21.5765 17.432C21.3262 17.6684 21.2151 18.0265 21.285 18.3719L22.9917 26.8031C23.1612 27.6404 22.3044 28.2926 21.5969 27.865L14.4716 23.5588C14.1797 23.3825 13.8203 23.3825 13.5284 23.5588L6.40314 27.865C5.69556 28.2926 4.83882 27.6404 5.0083 26.8031L6.71498 18.3719C6.78489 18.0265 6.67381 17.6684 6.42354 17.432L0.313187 11.6621C-0.293611 11.0891 0.0336344 10.0338 0.845969 9.94398L9.02606 9.03934C9.3611 9.00229 9.65189 8.78092 9.78905 8.45849L13.1379 0.586317Z" fill="#2D88C7"/>
</svg>
